<?xml version="1.0" encoding="UTF-8" standalone="no"?>
<svg
   xmlns:dc="http://purl.org/dc/elements/1.1/"
   xmlns:cc="http://creativecommons.org/ns#"
   xmlns:rdf="http://www.w3.org/1999/02/22-rdf-syntax-ns#"
   xmlns:svg="http://www.w3.org/2000/svg"
   xmlns="http://www.w3.org/2000/svg"
   xmlns:sodipodi="http://sodipodi.sourceforge.net/DTD/sodipodi-0.dtd"
   xmlns:inkscape="http://www.inkscape.org/namespaces/inkscape"
   width="60mm"
   height="14mm"
   viewBox="0 0 60 14"
   version="1.1"
   id="svg961"
   inkscape:version="1.0.2 (e86c870879, 2021-01-15)"
   sodipodi:docname="diamond-lattice.svg">
  <defs
     id="defs955" />
  <sodipodi:namedview
     id="base"
     pagecolor="#ffffff"
     bordercolor="#666666"
     borderopacity="1.0"
     inkscape:pageopacity="0.0"
     inkscape:pageshadow="2"
     inkscape:zoom="2.8484056"
     inkscape:cx="155.04988"
     inkscape:cy="77.608175"
     inkscape:document-units="mm"
     inkscape:current-layer="layer1"
     inkscape:document-rotation="0"
     showgrid="false"
     inkscape:window-width="1920"
     inkscape:window-height="1006"
     inkscape:window-x="0"
     inkscape:window-y="40"
     inkscape:window-maximized="1" />
  <metadata
     id="metadata958">
    <rdf:RDF>
      <cc:Work
         rdf:about="">
        <dc:format>image/svg+xml</dc:format>
        <dc:type
           rdf:resource="http://purl.org/dc/dcmitype/StillImage" />
        <dc:title></dc:title>
      </cc:Work>
    </rdf:RDF>
  </metadata>
  <g
     inkscape:label="Layer 1"
     inkscape:groupmode="layer"
     id="layer1">
    <path
       style="fill:none;stroke:#ff0000;stroke-width:0.144087"
       d="m 46.666285,12.224966 c 1.729044,0 4.034437,0.720435 5.76348,0.720435 1.729044,0 4.034437,-0.720435 5.763481,-0.720435"
       id="path5440" />
    <path
       style="fill:none;stroke:#ff0000;stroke-width:0.144087"
       d="m 32.257584,12.224966 c 1.729044,0 4.034437,0.720435 5.76348,0.720435 1.729044,0 4.034437,-0.720435 5.763481,-0.720435"
       id="path5430" />
    <path
       style="fill:none;stroke:#ff0000;stroke-width:0.144087"
       d="m 46.666285,9.3432239 c 1.729044,0 4.034437,0.7204361 5.76348,0.7204361 1.729044,0 4.034437,-0.7204361 5.763481,-0.7204361"
       id="path5390" />
    <path
       style="fill:none;stroke:#ff0000;stroke-width:0.144087"
       d="m 46.666285,12.224966 c 1.729044,0 4.034437,-0.720435 5.76348,-0.720435 1.729044,0 4.034437,0.720435 5.763481,0.720435"
       id="path5388" />
    <path
       style="fill:none;stroke:#ff0000;stroke-width:0.144087"
       d="m 59.634116,10.06366 c -1.729044,0 -4.034437,0.720435 -5.763481,0.720435 1.729044,0 4.034437,0.720435 5.763481,0.720435"
       id="path5386" />
    <path
       style="fill:none;stroke:#ff0000;stroke-width:0.144087"
       d="m 45.225415,10.06366 c 1.729044,0 4.034437,0.720435 5.763481,0.720435 -1.729044,0 -4.034437,0.720435 -5.763481,0.720435"
       id="path5384" />
    <path
       style="fill:none;stroke:#ff0000;stroke-width:0.144087"
       d="M 45.225415,9.3432239"
       id="path5382" />
    <path
       style="fill:none;stroke:#ff0000;stroke-width:0.144087"
       d="m 32.257584,9.3432239 c 1.729044,0 4.034437,0.7204361 5.76348,0.7204361 1.729044,0 4.034437,-0.7204361 5.763481,-0.7204361"
       id="path5380" />
    <path
       style="fill:none;stroke:#ff0000;stroke-width:0.144087"
       d="m 32.257584,12.224966 c 1.729044,0 4.034437,-0.720435 5.76348,-0.720435 1.729044,0 4.034437,0.720435 5.763481,0.720435"
       id="path5378" />
    <path
       style="fill:none;stroke:#ff0000;stroke-width:0.144087"
       d="m 45.225415,10.06366 c -1.729044,0 -4.034437,0.720435 -5.763481,0.720435 1.729044,0 4.034437,0.720435 5.763481,0.720435"
       id="path5376" />
    <path
       style="fill:none;stroke:#ff0000;stroke-width:0.144087"
       d="m 30.816714,10.06366 c 1.729044,0 4.034437,0.720435 5.763481,0.720435 -1.729044,0 -4.034437,0.720435 -5.763481,0.720435"
       id="path5374" />
    <path
       style="fill:none;stroke:#ff0000;stroke-width:0.144087"
       d="M 30.816714,9.3432239"
       id="path5372" />
    <path
       style="fill:none;stroke:#ff0000;stroke-width:0.144087"
       d="m 46.666285,6.4614845 c 1.729044,0 4.034437,0.720435 5.76348,0.720435 1.729044,0 4.034437,-0.720435 5.763481,-0.720435"
       id="path5340" />
    <path
       style="fill:none;stroke:#ff0000;stroke-width:0.144087"
       d="m 46.666285,9.3432239 c 1.729044,0 4.034437,-0.7204345 5.76348,-0.7204345 1.729044,0 4.034437,0.7204345 5.763481,0.7204345"
       id="path5338" />
    <path
       style="fill:none;stroke:#ff0000;stroke-width:0.144087"
       d="m 59.634116,7.1819195 c -1.729044,0 -4.034437,0.7204349 -5.763481,0.7204349 1.729044,0 4.034437,0.720435 5.763481,0.720435"
       id="path5336" />
    <path
       style="fill:none;stroke:#ff0000;stroke-width:0.144087"
       d="m 45.225415,7.1819195 c 1.729044,0 4.034437,0.7204349 5.763481,0.7204349 -1.729044,0 -4.034437,0.720435 -5.763481,0.720435"
       id="path5334" />
    <path
       style="fill:none;stroke:#ff0000;stroke-width:0.144087"
       d="M 45.225415,6.4614845"
       id="path5332" />
    <path
       style="fill:none;stroke:#ff0000;stroke-width:0.144087"
       d="m 32.257584,6.4614845 c 1.729044,0 4.034437,0.720435 5.76348,0.720435 1.729044,0 4.034437,-0.720435 5.763481,-0.720435"
       id="path5330" />
    <path
       style="fill:none;stroke:#ff0000;stroke-width:0.144087"
       d="m 32.257584,9.3432239 c 1.729044,0 4.034437,-0.7204345 5.76348,-0.7204345 1.729044,0 4.034437,0.7204345 5.763481,0.7204345"
       id="path5328" />
    <path
       style="fill:none;stroke:#ff0000;stroke-width:0.144087"
       d="m 45.225415,7.1819195 c -1.729044,0 -4.034437,0.7204349 -5.763481,0.7204349 1.729044,0 4.034437,0.720435 5.763481,0.720435"
       id="path5326" />
    <path
       style="fill:none;stroke:#ff0000;stroke-width:0.144087"
       d="m 30.816714,7.1819195 c 1.729044,0 4.034437,0.7204349 5.763481,0.7204349 -1.729044,0 -4.034437,0.720435 -5.763481,0.720435"
       id="path5324" />
    <path
       id="path892"
       style="fill:none;stroke:#ff0000;stroke-width:0.144087"
       d="M 30.333099,5.2546335 M 0.54402462,0.32757335 m 0,0.68989875 c 0,0 5.51918898,0.6898986 5.51918898,0.6898986 0,0 -5.51918898,0.6898986 -5.51918898,0.6898986 M 14.341997,1.0174721 c 0,0 -5.5191888,0.6898986 -5.5191888,0.6898986 0,0 5.5191888,0.6898986 5.5191888,0.6898986 M 1.9238218,3.087168 c 0,0 5.5191892,-0.6898987 5.5191892,-0.6898987 0,0 5.519189,0.6898987 5.519189,0.6898987 M 1.9238218,0.32757335 c 0,0 5.5191892,0.68989875 5.5191892,0.68989875 0,0 5.519189,-0.68989875 5.519189,-0.68989875 m 1.379797,0 m 0,0.68989875 c 0,0 5.519189,0.6898986 5.519189,0.6898986 0,0 -5.519189,0.6898986 -5.519189,0.6898986 M 28.13997,1.0174721 c 0,0 -5.519189,0.6898986 -5.519189,0.6898986 0,0 5.519189,0.6898986 5.519189,0.6898986 M 15.721795,3.087168 c 0,0 5.519189,-0.6898987 5.519189,-0.6898987 0,0 5.519189,0.6898987 5.519189,0.6898987 M 15.721795,0.32757335 c 0,0 5.519189,0.68989875 5.519189,0.68989875 0,0 5.519189,-0.68989875 5.519189,-0.68989875 m 1.379797,0 m 0,0.68989875 c 0,0 5.519189,0.6898986 5.519189,0.6898986 0,0 -5.519189,0.6898986 -5.519189,0.6898986 M 0.54402462,3.087168 m 0,0.6898986 c 0,0 5.51918898,0.6898986 5.51918898,0.6898986 0,0 -5.51918898,0.6898987 -5.51918898,0.6898987 M 14.341997,3.7770666 c 0,0 -5.5191888,0.6898986 -5.5191888,0.6898986 0,0 5.5191888,0.6898987 5.5191888,0.6898987 M 1.9238218,5.8467625 c 0,0 5.5191892,-0.6898986 5.5191892,-0.6898986 0,0 5.519189,0.6898986 5.519189,0.6898986 M 1.9238218,3.087168 c 0,0 5.5191892,0.6898986 5.5191892,0.6898986 0,0 5.519189,-0.6898986 5.519189,-0.6898986 m 1.379797,0 m 0,0.6898986 c 0,0 5.519189,0.6898986 5.519189,0.6898986 0,0 -5.519189,0.6898987 -5.519189,0.6898987 M 28.13997,3.7770666 c 0,0 -5.519189,0.6898986 -5.519189,0.6898986 0,0 5.519189,0.6898987 5.519189,0.6898987 M 15.721795,5.8467625 c 0,0 5.519189,-0.6898986 5.519189,-0.6898986 0,0 5.519189,0.6898986 5.519189,0.6898986 M 15.721795,3.087168 c 0,0 5.519189,0.6898986 5.519189,0.6898986 0,0 5.519189,-0.6898986 5.519189,-0.6898986 m 1.379797,0 m 0,0.6898986 c 0,0 5.519189,0.6898986 5.519189,0.6898986 0,0 -5.519189,0.6898987 -5.519189,0.6898987" />
  </g>
</svg>
