<?xml version="1.0" encoding="UTF-8" standalone="no"?>
<svg
   xmlns:dc="http://purl.org/dc/elements/1.1/"
   xmlns:cc="http://creativecommons.org/ns#"
   xmlns:rdf="http://www.w3.org/1999/02/22-rdf-syntax-ns#"
   xmlns:svg="http://www.w3.org/2000/svg"
   xmlns="http://www.w3.org/2000/svg"
   xmlns:sodipodi="http://sodipodi.sourceforge.net/DTD/sodipodi-0.dtd"
   xmlns:inkscape="http://www.inkscape.org/namespaces/inkscape"
   width="60mm"
   height="14mm"
   viewBox="0 0 60 14"
   version="1.1"
   id="svg961"
   inkscape:version="1.0.2 (e86c870879, 2021-01-15)"
   sodipodi:docname="wavy-lattice.svg">
  <defs
     id="defs955" />
  <sodipodi:namedview
     id="base"
     pagecolor="#ffffff"
     bordercolor="#666666"
     borderopacity="1.0"
     inkscape:pageopacity="0.0"
     inkscape:pageshadow="2"
     inkscape:zoom="1.7797634"
     inkscape:cx="200.66504"
     inkscape:cy="103.7315"
     inkscape:document-units="mm"
     inkscape:current-layer="layer1"
     inkscape:document-rotation="0"
     showgrid="false"
     inkscape:window-width="1920"
     inkscape:window-height="1006"
     inkscape:window-x="0"
     inkscape:window-y="40"
     inkscape:window-maximized="1" />
  <metadata
     id="metadata958">
    <rdf:RDF>
      <cc:Work
         rdf:about="">
        <dc:format>image/svg+xml</dc:format>
        <dc:type
           rdf:resource="http://purl.org/dc/dcmitype/StillImage" />
        <dc:title></dc:title>
      </cc:Work>
    </rdf:RDF>
  </metadata>
  <g
     inkscape:label="Layer 1"
     inkscape:groupmode="layer"
     id="layer1">
    <path
       style="fill:none;stroke:#ff0000;stroke-width:0.2"
       d="M 3.6633293,11.137138"
       id="path2904" />
    <path
       style="fill:none;stroke:#ff0000;stroke-width:0.2"
       d="m 43.663329,11.137138 h 2 c 2,0 1.5,-1.5000001 4,-1.5000001 h 3.5"
       id="path2888" />
    <path
       style="fill:none;stroke:#ff0000;stroke-width:0.2"
       d="M 43.663329,8.1371379"
       id="path2886" />
    <path
       style="fill:none;stroke:#ff0000;stroke-width:0.2"
       d="m 31.163329,8.1371379 h 6 c 4,0 2,3.0000001 5,3.0000001 h 2"
       id="path2884" />
    <path
       style="fill:none;stroke:#ff0000;stroke-width:0.2"
       d="m 23.663329,11.137138 h 2 c 2,0 1.5,-1.5000001 4,-1.5000001 h 3.5"
       id="path2882" />
    <path
       style="fill:none;stroke:#ff0000;stroke-width:0.2"
       d="M 23.663329,8.1371379"
       id="path2880" />
    <path
       style="fill:none;stroke:#ff0000;stroke-width:0.2"
       d="m 11.163329,8.1371379 h 6 c 4,0 2,3.0000001 5,3.0000001 h 2"
       id="path2878" />
    <path
       style="fill:none;stroke:#ff0000;stroke-width:0.2"
       d="m 3.6633293,11.137138 h 2 c 2,0 1.5,-1.5000001 4,-1.5000001 h 3.4999997"
       id="path2876" />
    <path
       style="fill:none;stroke:#ff0000;stroke-width:0.2"
       d="M 3.6633293,8.1371379"
       id="path2874" />
    <path
       style="fill:none;stroke:#ff0000;stroke-width:0.2"
       d="m 43.663329,8.1371379 h 2 c 2,0 1.5,-1.5 4,-1.5 h 3.5"
       id="path2858" />
    <path
       style="fill:none;stroke:#ff0000;stroke-width:0.2"
       d="M 43.663329,5.1371379"
       id="path2856" />
    <path
       style="fill:none;stroke:#ff0000;stroke-width:0.2"
       d="m 31.163329,5.1371379 h 6 c 4,0 2,3 5,3 h 2"
       id="path2854" />
    <path
       style="fill:none;stroke:#ff0000;stroke-width:0.2"
       d="m 23.663329,8.1371379 h 2 c 2,0 1.5,-1.5 4,-1.5 h 3.5"
       id="path2852" />
    <path
       style="fill:none;stroke:#ff0000;stroke-width:0.2"
       d="M 23.663329,5.1371379"
       id="path2850" />
    <path
       style="fill:none;stroke:#ff0000;stroke-width:0.2"
       d="m 11.163329,5.1371379 h 6 c 4,0 2,3 5,3 h 2"
       id="path2848" />
    <path
       style="fill:none;stroke:#ff0000;stroke-width:0.2"
       d="m 3.6633293,8.1371379 h 2 c 2,0 1.5,-1.5 4,-1.5 h 3.4999997"
       id="path2846" />
    <path
       style="fill:none;stroke:#ff0000;stroke-width:0.2"
       d="M 3.6633293,5.1371379"
       id="path2844" />
    <path
       style="fill:none;stroke:#ff0000;stroke-width:0.2"
       d="m 43.663329,5.1371379 h 2 c 2,0 1.5,-1.5 4,-1.5 h 3.5"
       id="path2828" />
    <path
       style="fill:none;stroke:#ff0000;stroke-width:0.2"
       d="M 43.663329,2.1371379"
       id="path2826" />
    <path
       style="fill:none;stroke:#ff0000;stroke-width:0.2"
       d="m 31.163329,2.1371379 h 6 c 4,0 2,3 5,3 h 2"
       id="path2824" />
    <path
       style="fill:none;stroke:#ff0000;stroke-width:0.2"
       d="m 23.663329,5.1371379 h 2 c 2,0 1.5,-1.5 4,-1.5 h 3.5"
       id="path2822" />
    <path
       style="fill:none;stroke:#ff0000;stroke-width:0.2"
       d="M 23.663329,2.1371379"
       id="path2820" />
    <path
       style="fill:none;stroke:#ff0000;stroke-width:0.2"
       d="m 11.163329,2.1371379 h 6 c 4,0 2,3 5,3 h 2"
       id="path2818" />
    <path
       style="fill:none;stroke:#ff0000;stroke-width:0.2"
       d="m 3.6633293,5.1371379 h 2 c 2,0 1.5,-1.5 4,-1.5 h 3.4999997"
       id="path2816" />
    <path
       style="fill:none;stroke:#ff0000;stroke-width:0.2"
       d="M 3.6633293,2.1371379"
       id="path928" />
  </g>
</svg>
